<svg id="visual" viewBox="0 0 900 600" width="900" height="600" xmlns="http://www.w3.org/2000/svg" xmlns:xlink="http://www.w3.org/1999/xlink" version="1.1"><rect x="0" y="0" width="900" height="600" fill="#f4efec"></rect><g transform="translate(510.10816316986285 248.51724582441784)"><path d="M130 -153.8C161.8 -128.2 176.4 -80.9 192.3 -28.4C208.2 24.2 225.3 82.1 207.5 126.1C189.6 170.1 136.7 200.1 76.8 230.4C16.9 260.6 -50 291 -116.3 282.8C-182.5 274.6 -248 227.8 -290 163.4C-332.1 99 -350.7 16.9 -320.2 -39.2C-289.7 -95.2 -210.1 -125.4 -148.5 -145.8C-87 -166.2 -43.5 -176.8 2.8 -180.2C49.1 -183.5 98.1 -179.5 130 -153.8" fill="#ebbbcd"></path></g></svg>