<?xml version="1.0" standalone="no"?>
<svg xmlns:xlink="http://www.w3.org/1999/xlink" id="wave" style="transform:rotate(180deg); transition: 0.3s" viewBox="0 0 1440 220" version="1.1" xmlns="http://www.w3.org/2000/svg"><defs><linearGradient id="sw-gradient-0" x1="0" x2="0" y1="1" y2="0"><stop stop-color="rgba(235, 187, 205, 1)" offset="0%"/><stop stop-color="rgba(235, 187, 205, 1)" offset="100%"/></linearGradient></defs><path style="transform:translate(0, 0px); opacity:1" fill="url(#sw-gradient-0)" d="M0,88L16,77C32,66,64,44,96,40.3C128,37,160,51,192,69.7C224,88,256,110,288,117.3C320,125,352,117,384,95.3C416,73,448,37,480,36.7C512,37,544,73,576,77C608,81,640,51,672,66C704,81,736,139,768,135.7C800,132,832,66,864,47.7C896,29,928,59,960,62.3C992,66,1024,44,1056,62.3C1088,81,1120,139,1152,143C1184,147,1216,95,1248,95.3C1280,95,1312,147,1344,143C1376,139,1408,81,1440,80.7C1472,81,1504,139,1536,165C1568,191,1600,183,1632,168.7C1664,154,1696,132,1728,110C1760,88,1792,66,1824,47.7C1856,29,1888,15,1920,25.7C1952,37,1984,73,2016,99C2048,125,2080,139,2112,143C2144,147,2176,139,2208,117.3C2240,95,2272,59,2288,40.3L2304,22L2304,220L2288,220C2272,220,2240,220,2208,220C2176,220,2144,220,2112,220C2080,220,2048,220,2016,220C1984,220,1952,220,1920,220C1888,220,1856,220,1824,220C1792,220,1760,220,1728,220C1696,220,1664,220,1632,220C1600,220,1568,220,1536,220C1504,220,1472,220,1440,220C1408,220,1376,220,1344,220C1312,220,1280,220,1248,220C1216,220,1184,220,1152,220C1120,220,1088,220,1056,220C1024,220,992,220,960,220C928,220,896,220,864,220C832,220,800,220,768,220C736,220,704,220,672,220C640,220,608,220,576,220C544,220,512,220,480,220C448,220,416,220,384,220C352,220,320,220,288,220C256,220,224,220,192,220C160,220,128,220,96,220C64,220,32,220,16,220L0,220Z"/></svg>