<?xml version="1.0" standalone="no"?>
<svg xmlns:xlink="http://www.w3.org/1999/xlink" id="wave" style="transform:rotate(180deg); transition: 0.3s" viewBox="0 0 1440 210" version="1.1" xmlns="http://www.w3.org/2000/svg"><defs><linearGradient id="sw-gradient-0" x1="0" x2="0" y1="1" y2="0"><stop stop-color="rgba(244, 239, 236, 1)" offset="0%"/><stop stop-color="rgba(244, 239, 236, 1)" offset="100%"/></linearGradient></defs><path style="transform:translate(0, 0px); opacity:1" fill="url(#sw-gradient-0)" d="M0,84L80,91C160,98,320,112,480,108.5C640,105,800,84,960,77C1120,70,1280,77,1440,87.5C1600,98,1760,112,1920,101.5C2080,91,2240,56,2400,35C2560,14,2720,7,2880,31.5C3040,56,3200,112,3360,112C3520,112,3680,56,3840,52.5C4000,49,4160,98,4320,98C4480,98,4640,49,4800,31.5C4960,14,5120,28,5280,45.5C5440,63,5600,84,5760,105C5920,126,6080,147,6240,143.5C6400,140,6560,112,6720,91C6880,70,7040,56,7200,66.5C7360,77,7520,112,7680,115.5C7840,119,8000,91,8160,98C8320,105,8480,147,8640,143.5C8800,140,8960,91,9120,73.5C9280,56,9440,70,9600,84C9760,98,9920,112,10080,115.5C10240,119,10400,112,10560,119C10720,126,10880,147,11040,129.5C11200,112,11360,56,11440,28L11520,0L11520,210L11440,210C11360,210,11200,210,11040,210C10880,210,10720,210,10560,210C10400,210,10240,210,10080,210C9920,210,9760,210,9600,210C9440,210,9280,210,9120,210C8960,210,8800,210,8640,210C8480,210,8320,210,8160,210C8000,210,7840,210,7680,210C7520,210,7360,210,7200,210C7040,210,6880,210,6720,210C6560,210,6400,210,6240,210C6080,210,5920,210,5760,210C5600,210,5440,210,5280,210C5120,210,4960,210,4800,210C4640,210,4480,210,4320,210C4160,210,4000,210,3840,210C3680,210,3520,210,3360,210C3200,210,3040,210,2880,210C2720,210,2560,210,2400,210C2240,210,2080,210,1920,210C1760,210,1600,210,1440,210C1280,210,1120,210,960,210C800,210,640,210,480,210C320,210,160,210,80,210L0,210Z"/></svg>